{
  "accessors": [
    {
      "bufferView": 2,
      "componentType": 5126,
      "count": 6,
      "max": [
        0.4676797091960907,
        0.21221056580543518,
        0.62420397996902466
      ],
      "min": [
        0.41416639089584351,
        0.082647643983364105,
        0.60001099109649658
      ],
      "type": "VEC3"
    },
    {
      "bufferView": 2,
      "byteOffset": 72,
      "componentType": 5126,
      "count": 6,
      "max": [
        0.84926456212997437,
        0.76302635669708252,
        0.22443960607051849
      ],
      "min": [
        0.60615015029907227,
        -0.63225257396697998,
        0.22443872690200806
      ],
      "type": "VEC3"
    },
    {
      "bufferView": 1,
      "componentType": 5126,
      "count": 6,
      "max": [
        1.7370223999023438,
        0.82593750953674316
      ],
      "min": [
        0.72787553071975708,
        0.80480664968490601
      ],
      "type": "VEC2"
    },
    {
      "bufferView": 0,
      "componentType": 5125,
      "count": 6,
      "max": [
        5
      ],
      "min": [
        0
      ],
      "type": "SCALAR"
    },
    {
      "bufferView": 2,
      "byteOffset": 144,
      "componentType": 5126,
      "count": 9234,
      "max": [
        0.82959723472595215,
        0.49396249651908875,
        1.4439650774002075
      ],
      "min": [
        -0.94086283445358276,
        -0.33615249395370483,
        -1.0262355804443359
      ],
      "type": "VEC3"
    },
    {
      "bufferView": 2,
      "byteOffset": 110952,
      "componentType": 5126,
      "count": 9234,
      "max": [
        1,
        0.99997836351394653,
        0.99952572584152222
      ],
      "min": [
        -0.99999362230300903,
        -0.99964302778244019,
        -0.9999348521232605
      ],
      "type": "VEC3"
    },
    {
      "bufferView": 1,
      "byteOffset": 48,
      "componentType": 5126,
      "count": 9234,
      "max": [
        10.959980010986328,
        0.99733000993728638
      ],
      "min": [
        0.002369999885559082,
        0.0034799999557435513
      ],
      "type": "VEC2"
    },
    {
      "bufferView": 0,
      "byteOffset": 24,
      "componentType": 5125,
      "count": 45654,
      "max": [
        9233
      ],
      "min": [
        0
      ],
      "type": "SCALAR"
    }
  ],
  "asset": {
    "extras": {
      "author": "Marcin Cecot (https://sketchfab.com/MarcinCecot)",
      "license": "CC-BY-4.0 (http://creativecommons.org/licenses/by/4.0/)",
      "source": "https://sketchfab.com/3d-models/plague-viktor-a4faa52a950942bcbc2948270c70f834",
      "title": "Plague Viktor"
    },
    "generator": "Sketchfab-8.87.0",
    "version": "2.0"
  },
  "bufferViews": [
    {
      "buffer": 0,
      "byteLength": 182640,
      "byteOffset": 0,
      "name": "floatBufferViews",
      "target": 34963
    },
    {
      "buffer": 0,
      "byteLength": 73920,
      "byteOffset": 182640,
      "byteStride": 8,
      "name": "floatBufferViews",
      "target": 34962
    },
    {
      "buffer": 0,
      "byteLength": 221760,
      "byteOffset": 256560,
      "byteStride": 12,
      "name": "floatBufferViews",
      "target": 34962
    }
  ],
  "buffers": [
    {
      "byteLength": 478320,
      "uri": "./scene.bin"
    }
  ],
  "images": [
    {
      "uri": "./textures/material_0_baseColor.png"
    }
  ],
  "materials": [
    {
      "doubleSided": false,
      "emissiveFactor": [
        0,
        0,
        0
      ],
      "name": "material_0",
      "pbrMetallicRoughness": {
        "baseColorFactor": [
          1,
          1,
          1,
          1
        ],
        "baseColorTexture": {
          "index": 0,
          "texCoord": 0
        },
        "metallicFactor": 0,
        "roughnessFactor": 0.20000000000000001
      }
    }
  ],
  "meshes": [
    {
      "primitives": [
        {
          "attributes": {
            "NORMAL": 1,
            "POSITION": 0,
            "TEXCOORD_0": 2
          },
          "indices": 3,
          "material": 0,
          "mode": 4
        }
      ]
    },
    {
      "primitives": [
        {
          "attributes": {
            "NORMAL": 5,
            "POSITION": 4,
            "TEXCOORD_0": 6
          },
          "indices": 7,
          "material": 0,
          "mode": 4
        }
      ]
    }
  ],
  "nodes": [
    {
      "children": [
        1
      ],
      "name": "RootNode (gltf orientation matrix)",
      "rotation": [
        -0.70710678118654746,
        -0,
        -0,
        0.70710678118654757
      ]
    },
    {
      "children": [
        2
      ],
      "name": "RootNode (model correction matrix)"
    },
    {
      "children": [
        3,
        4
      ],
      "name": "c51c10e32e3f42f9baf341bae45370b2.obj.cleaner"
    },
    {
      "mesh": 0,
      "name": ""
    },
    {
      "mesh": 1,
      "name": ""
    }
  ],
  "samplers": [
    {
      "magFilter": 9729,
      "minFilter": 9987,
      "wrapS": 10497,
      "wrapT": 10497
    }
  ],
  "scene": 0,
  "scenes": [
    {
      "name": "OSG_Scene",
      "nodes": [
        0
      ]
    }
  ],
  "textures": [
    {
      "sampler": 0,
      "source": 0
    }
  ]
}

